<svg xmlns="http://www.w3.org/2000/svg" xmlns:xlink="http://www.w3.org/1999/xlink" width="500" zoomAndPan="magnify" viewBox="0 0 375 374.999991" height="500" preserveAspectRatio="xMidYMid meet" version="1.0"><defs><g/></defs><g fill="#64199f" fill-opacity="1"><g transform="translate(104.164025, 227.965463)"><g><path d="M 90.261719 -90.078125 C 91.753906 -90.078125 92.316406 -88.957031 92.316406 -87.652344 L 92.5 -41.589844 C 92.5 -30.210938 96.976562 -19.953125 105.183594 -11.9375 C 121.96875 5.035156 149.195312 5.035156 165.980469 -11.9375 C 173.066406 -18.835938 177.171875 -27.789062 178.289062 -36.925781 C 178.664062 -38.605469 178.664062 -40.28125 178.664062 -42.335938 L 178.664062 -111.335938 C 178.664062 -136.886719 137.632812 -136.886719 137.632812 -111.335938 L 137.632812 -42.335938 C 137.632812 -41.773438 137.445312 -41.214844 137.074219 -40.84375 C 136.140625 -39.910156 134.835938 -39.910156 134.089844 -40.84375 C 133.71875 -41.214844 133.53125 -41.773438 133.53125 -42.335938 L 133.34375 -42.335938 L 133.34375 -88.210938 C 133.15625 -111.710938 113.761719 -130.917969 90.261719 -130.917969 C 66.765625 -130.917969 47.371094 -111.710938 47.183594 -88.210938 L 47.183594 -42.335938 C 47.183594 -41.773438 46.996094 -41.214844 46.4375 -40.84375 C 45.691406 -39.910156 44.386719 -39.910156 43.453125 -40.84375 C 43.082031 -41.214844 42.894531 -41.773438 42.894531 -42.335938 L 42.894531 -111.335938 C 42.894531 -136.886719 1.863281 -136.886719 1.863281 -111.335938 L 1.863281 -42.335938 C 1.863281 -40.28125 1.863281 -38.605469 2.238281 -36.925781 C 3.355469 -27.789062 7.460938 -18.835938 14.546875 -11.9375 C 31.332031 5.035156 58.558594 5.035156 75.53125 -11.9375 C 83.550781 -19.953125 88.027344 -30.210938 88.027344 -41.589844 L 88.210938 -87.652344 C 88.210938 -88.957031 88.957031 -90.078125 90.261719 -90.078125 Z M 90.261719 -90.078125 "/></g></g></g><g fill="#b36aed" fill-opacity="1"><g transform="translate(236.574174, 89.167158)"><g><path d="M 44.945312 -19.582031 C 44.574219 -46.808594 2.609375 -46.808594 2.425781 -19.582031 C 2.238281 8.390625 45.132812 8.390625 44.945312 -19.582031 Z M 44.945312 -19.582031 "/></g></g></g><g fill="#b36aed" fill-opacity="1"><g transform="translate(146.412242, 267.860212)"><g><path d="M 17.28125 0 L 13.484375 0 L 11.359375 -8.25 C 11.273438 -8.539062 11.140625 -9.144531 10.953125 -10.0625 C 10.765625 -10.988281 10.65625 -11.609375 10.625 -11.921875 C 10.582031 -11.535156 10.472656 -10.914062 10.296875 -10.0625 C 10.128906 -9.207031 10 -8.597656 9.90625 -8.234375 L 7.78125 0 L 4 0 L 0 -15.703125 L 3.28125 -15.703125 L 5.28125 -7.140625 C 5.632812 -5.554688 5.890625 -4.179688 6.046875 -3.015625 C 6.085938 -3.421875 6.1875 -4.050781 6.34375 -4.90625 C 6.5 -5.769531 6.644531 -6.4375 6.78125 -6.90625 L 9.0625 -15.703125 L 12.21875 -15.703125 L 14.5 -6.90625 C 14.601562 -6.507812 14.726562 -5.90625 14.875 -5.09375 C 15.03125 -4.289062 15.144531 -3.597656 15.21875 -3.015625 C 15.289062 -3.578125 15.40625 -4.273438 15.5625 -5.109375 C 15.71875 -5.941406 15.863281 -6.617188 16 -7.140625 L 18 -15.703125 L 21.265625 -15.703125 Z M 17.28125 0 "/></g></g></g><g fill="#b36aed" fill-opacity="1"><g transform="translate(167.677996, 267.860212)"><g><path d="M 1.578125 -15.109375 C 1.578125 -16.179688 2.171875 -16.71875 3.359375 -16.71875 C 4.546875 -16.71875 5.140625 -16.179688 5.140625 -15.109375 C 5.140625 -14.609375 4.988281 -14.210938 4.6875 -13.921875 C 4.394531 -13.640625 3.953125 -13.5 3.359375 -13.5 C 2.171875 -13.5 1.578125 -14.035156 1.578125 -15.109375 Z M 5 0 L 1.71875 0 L 1.71875 -12.015625 L 5 -12.015625 Z M 5 0 "/></g></g></g><g fill="#b36aed" fill-opacity="1"><g transform="translate(174.390676, 267.860212)"><g><path d="M 5.515625 0.21875 C 4.109375 0.21875 3 -0.328125 2.1875 -1.421875 C 1.382812 -2.523438 0.984375 -4.046875 0.984375 -5.984375 C 0.984375 -7.953125 1.394531 -9.484375 2.21875 -10.578125 C 3.039062 -11.679688 4.171875 -12.234375 5.609375 -12.234375 C 7.117188 -12.234375 8.269531 -11.644531 9.0625 -10.46875 L 9.171875 -10.46875 C 9.003906 -11.363281 8.921875 -12.164062 8.921875 -12.875 L 8.921875 -16.71875 L 12.21875 -16.71875 L 12.21875 0 L 9.703125 0 L 9.0625 -1.5625 L 8.921875 -1.5625 C 8.179688 -0.375 7.046875 0.21875 5.515625 0.21875 Z M 6.671875 -2.390625 C 7.503906 -2.390625 8.113281 -2.632812 8.5 -3.125 C 8.894531 -3.613281 9.113281 -4.441406 9.15625 -5.609375 L 9.15625 -5.96875 C 9.15625 -7.25 8.953125 -8.171875 8.546875 -8.734375 C 8.148438 -9.296875 7.507812 -9.578125 6.625 -9.578125 C 5.882812 -9.578125 5.3125 -9.265625 4.90625 -8.640625 C 4.507812 -8.023438 4.3125 -7.125 4.3125 -5.9375 C 4.3125 -4.757812 4.515625 -3.875 4.921875 -3.28125 C 5.328125 -2.6875 5.910156 -2.390625 6.671875 -2.390625 Z M 6.671875 -2.390625 "/></g></g></g><g fill="#b36aed" fill-opacity="1"><g transform="translate(188.310078, 267.860212)"><g><path d="M 6.6875 -9.90625 C 6 -9.90625 5.457031 -9.679688 5.0625 -9.234375 C 4.664062 -8.796875 4.441406 -8.175781 4.390625 -7.375 L 8.984375 -7.375 C 8.960938 -8.175781 8.75 -8.796875 8.34375 -9.234375 C 7.9375 -9.679688 7.382812 -9.90625 6.6875 -9.90625 Z M 7.15625 0.21875 C 5.21875 0.21875 3.703125 -0.3125 2.609375 -1.375 C 1.523438 -2.445312 0.984375 -3.960938 0.984375 -5.921875 C 0.984375 -7.929688 1.484375 -9.484375 2.484375 -10.578125 C 3.492188 -11.679688 4.890625 -12.234375 6.671875 -12.234375 C 8.367188 -12.234375 9.6875 -11.75 10.625 -10.78125 C 11.570312 -9.8125 12.046875 -8.476562 12.046875 -6.78125 L 12.046875 -5.1875 L 4.3125 -5.1875 C 4.34375 -4.257812 4.613281 -3.53125 5.125 -3 C 5.644531 -2.476562 6.375 -2.21875 7.3125 -2.21875 C 8.03125 -2.21875 8.710938 -2.289062 9.359375 -2.4375 C 10.003906 -2.59375 10.675781 -2.835938 11.375 -3.171875 L 11.375 -0.640625 C 10.800781 -0.347656 10.1875 -0.132812 9.53125 0 C 8.882812 0.144531 8.09375 0.21875 7.15625 0.21875 Z M 7.15625 0.21875 "/></g></g></g><g fill="#b36aed" fill-opacity="1"><g transform="translate(201.305816, 267.860212)"><g/></g></g><g fill="#ffffff" fill-opacity="1"><g transform="translate(207.021613, 267.860212)"><g><path d="M 17.28125 0 L 13.484375 0 L 11.359375 -8.25 C 11.273438 -8.539062 11.140625 -9.144531 10.953125 -10.0625 C 10.765625 -10.988281 10.65625 -11.609375 10.625 -11.921875 C 10.582031 -11.535156 10.472656 -10.914062 10.296875 -10.0625 C 10.128906 -9.207031 10 -8.597656 9.90625 -8.234375 L 7.78125 0 L 4 0 L 0 -15.703125 L 3.28125 -15.703125 L 5.28125 -7.140625 C 5.632812 -5.554688 5.890625 -4.179688 6.046875 -3.015625 C 6.085938 -3.421875 6.1875 -4.050781 6.34375 -4.90625 C 6.5 -5.769531 6.644531 -6.4375 6.78125 -6.90625 L 9.0625 -15.703125 L 12.21875 -15.703125 L 14.5 -6.90625 C 14.601562 -6.507812 14.726562 -5.90625 14.875 -5.09375 C 15.03125 -4.289062 15.144531 -3.597656 15.21875 -3.015625 C 15.289062 -3.578125 15.40625 -4.273438 15.5625 -5.109375 C 15.71875 -5.941406 15.863281 -6.617188 16 -7.140625 L 18 -15.703125 L 21.265625 -15.703125 Z M 17.28125 0 "/></g></g></g><g fill="#ffffff" fill-opacity="1"><g transform="translate(228.287367, 267.860212)"><g><path d="M 6.6875 -9.90625 C 6 -9.90625 5.457031 -9.679688 5.0625 -9.234375 C 4.664062 -8.796875 4.441406 -8.175781 4.390625 -7.375 L 8.984375 -7.375 C 8.960938 -8.175781 8.75 -8.796875 8.34375 -9.234375 C 7.9375 -9.679688 7.382812 -9.90625 6.6875 -9.90625 Z M 7.15625 0.21875 C 5.21875 0.21875 3.703125 -0.3125 2.609375 -1.375 C 1.523438 -2.445312 0.984375 -3.960938 0.984375 -5.921875 C 0.984375 -7.929688 1.484375 -9.484375 2.484375 -10.578125 C 3.492188 -11.679688 4.890625 -12.234375 6.671875 -12.234375 C 8.367188 -12.234375 9.6875 -11.75 10.625 -10.78125 C 11.570312 -9.8125 12.046875 -8.476562 12.046875 -6.78125 L 12.046875 -5.1875 L 4.3125 -5.1875 C 4.34375 -4.257812 4.613281 -3.53125 5.125 -3 C 5.644531 -2.476562 6.375 -2.21875 7.3125 -2.21875 C 8.03125 -2.21875 8.710938 -2.289062 9.359375 -2.4375 C 10.003906 -2.59375 10.675781 -2.835938 11.375 -3.171875 L 11.375 -0.640625 C 10.800781 -0.347656 10.1875 -0.132812 9.53125 0 C 8.882812 0.144531 8.09375 0.21875 7.15625 0.21875 Z M 7.15625 0.21875 "/></g></g></g><g fill="#ffffff" fill-opacity="1"><g transform="translate(241.283105, 267.860212)"><g><path d="M 8.40625 -12.234375 C 9.820312 -12.234375 10.929688 -11.679688 11.734375 -10.578125 C 12.535156 -9.472656 12.9375 -7.957031 12.9375 -6.03125 C 12.9375 -4.039062 12.519531 -2.5 11.6875 -1.40625 C 10.863281 -0.320312 9.738281 0.21875 8.3125 0.21875 C 6.90625 0.21875 5.800781 -0.296875 5 -1.328125 L 4.765625 -1.328125 L 4.21875 0 L 1.71875 0 L 1.71875 -16.71875 L 5 -16.71875 L 5 -12.828125 C 5 -12.328125 4.953125 -11.535156 4.859375 -10.453125 L 5 -10.453125 C 5.757812 -11.640625 6.894531 -12.234375 8.40625 -12.234375 Z M 7.34375 -9.609375 C 6.539062 -9.609375 5.953125 -9.359375 5.578125 -8.859375 C 5.203125 -8.367188 5.007812 -7.550781 5 -6.40625 L 5 -6.046875 C 5 -4.753906 5.1875 -3.828125 5.5625 -3.265625 C 5.945312 -2.710938 6.554688 -2.4375 7.390625 -2.4375 C 8.066406 -2.4375 8.601562 -2.742188 9 -3.359375 C 9.394531 -3.984375 9.59375 -4.882812 9.59375 -6.0625 C 9.59375 -7.25 9.390625 -8.132812 8.984375 -8.71875 C 8.585938 -9.3125 8.039062 -9.609375 7.34375 -9.609375 Z M 7.34375 -9.609375 "/></g></g></g></svg>